# xmcd
#
# Track frame offsets: 
#        150
#        10914
#        13544
#        25385
#        40027
#        49634
#        56175
#        70866
#        80887
#        82003
#        95964
#        97949
#        112226
#        120743
#        132857
#        137422
#        153736
#        157567
#        161855
#        171703
#        174272
#        191843
#        194308
#        197770
#
# Disc length: 2875 seconds
#
# Revision: 0
# Processed by: cddbd v1.5.2PL0 Copyright (c) Steve Scherf et al.
# Submitted via: ExactAudioCopy v0.90b4
#
DISCID=510b3918
DTITLE=Orange Sherbet and Hot Buttered Rum - Campfire Sing-Along
DYEAR=2007
DGENRE=Children's
TTITLE0=Campfire Songs
TTITLE1=Ram Sam Sam
TTITLE2=Crawdad
TTITLE3=One Man Band
TTITLE4=Down by the Bay
TTITLE5=I Love the Mountains
TTITLE6=Marshmallow
TTITLE7=Froggy
TTITLE8=Down by the Banks
TTITLE9=Frog Went a Courtin'
TTITLE10=Make New Friends
TTITLE11=Bit by Bit
TTITLE12=Sippin' Cider
TTITLE13=She'll Be Comin' Round the Mountain
TTITLE14=Uncle Sean
TTITLE15=Sky in Me
TTITLE16=Skin and Bones
TTITLE17=Barges
TTITLE18=Down by the Old Mill Stream
TTITLE19=My Paddle/ Canoe Song
TTITLE20=Down by the Riverside
TTITLE21=Hey Ho, Nobody Home!
TTITLE22=Mr. Moon
TTITLE23=Shenandoah
EXTD=
EXTT0=
EXTT1=
EXTT2=
EXTT3=
EXTT4=
EXTT5=
EXTT6=
EXTT7=
EXTT8=
EXTT9=
EXTT10=
EXTT11=
EXTT12=
EXTT13=
EXTT14=
EXTT15=
EXTT16=
EXTT17=
EXTT18=
EXTT19=
EXTT20=
EXTT21=
EXTT22=
EXTT23=
PLAYORDER=
